<?xml version="1.0" standalone="no"?>
<!DOCTYPE svg PUBLIC "-//W3C//DTD SVG 20010904//EN"
 "http://www.w3.org/TR/2001/REC-SVG-20010904/DTD/svg10.dtd">
<svg version="1.0" xmlns="http://www.w3.org/2000/svg"
 width="520.000000pt" height="520.000000pt" viewBox="0 0 520.000000 520.000000"
 preserveAspectRatio="xMidYMid meet">
<metadata>
Created by potrace 1.14, written by Peter Selinger 2001-2017
</metadata>
<g transform="translate(0.000000,520.000000) scale(0.100000,-0.100000)"
fill="#000000" stroke="none">
<path d="M526 5185 c4 -8 10 -12 15 -9 8 5 14 -18 10 -39 -1 -5 3 -6 8 -3 5 3
11 -4 14 -15 3 -12 10 -18 15 -15 6 3 13 -1 16 -10 4 -10 2 -13 -7 -9 -6 4 -3
-1 7 -9 11 -9 16 -16 11 -16 -4 0 4 -11 19 -25 15 -14 24 -25 20 -25 -3 0 -1
-6 5 -13 6 -8 7 -17 3 -21 -4 -4 0 -6 8 -4 8 2 15 -4 15 -12 0 -8 6 -14 13
-12 7 1 12 -9 12 -24 0 -14 4 -23 10 -19 6 3 10 1 10 -5 0 -18 36 -60 44 -52
4 3 4 -1 0 -11 -3 -10 -1 -17 5 -17 6 0 11 -6 11 -14 0 -8 7 -16 15 -20 9 -3
12 -12 8 -23 -3 -10 -3 -15 1 -11 11 9 35 -14 29 -28 -2 -5 10 -22 26 -37 21
-18 28 -32 24 -44 -3 -10 -3 -15 2 -11 12 11 35 -11 35 -34 0 -10 4 -17 9 -14
5 3 14 -8 21 -24 7 -17 16 -30 21 -30 5 0 9 -7 9 -15 0 -9 7 -18 15 -21 8 -4
12 -10 9 -15 -3 -5 0 -9 5 -9 6 0 11 -7 11 -15 0 -8 5 -15 10 -15 6 0 10 -7
10 -15 0 -8 5 -15 10 -15 6 0 10 -7 10 -15 0 -9 7 -18 15 -21 8 -4 12 -10 9
-15 -3 -5 0 -9 5 -9 6 0 11 -6 11 -14 0 -8 7 -17 16 -20 8 -3 13 -10 10 -14
-3 -5 4 -14 14 -22 10 -8 17 -17 14 -22 -3 -4 0 -8 7 -8 7 0 10 -3 6 -6 -8 -8
16 -33 26 -27 4 2 7 1 6 -4 -3 -20 2 -34 10 -28 6 3 8 -4 6 -16 -2 -12 -2 -19
2 -15 7 7 59 -65 55 -76 -1 -5 5 -8 13 -8 13 0 20 -19 16 -43 -1 -5 2 -6 6 -4
5 3 14 -1 21 -9 7 -8 10 -14 6 -14 -3 0 -1 -6 5 -13 6 -8 7 -18 3 -22 -4 -5 1
-5 11 -2 10 4 16 3 12 -2 -3 -5 0 -13 5 -16 6 -4 15 -18 21 -32 5 -13 14 -21
19 -18 6 4 10 3 9 -2 -3 -20 2 -34 11 -28 6 4 10 3 9 -2 -4 -22 2 -44 10 -39
5 4 15 -7 23 -24 7 -16 16 -30 20 -30 5 0 8 -6 8 -13 0 -7 8 -22 18 -33 47
-53 56 -67 42 -60 -9 4 -8 2 3 -7 9 -8 17 -19 17 -25 0 -5 7 -13 16 -16 8 -3
12 -10 9 -16 -3 -5 -1 -10 4 -10 6 0 11 -7 11 -16 0 -9 5 -12 12 -8 8 5 9 2 5
-10 -4 -9 -3 -15 2 -12 5 3 12 -6 15 -19 4 -16 11 -23 18 -19 8 5 9 2 5 -10
-4 -9 -3 -15 1 -12 4 3 14 -4 21 -16 7 -11 8 -17 2 -13 -6 3 -11 0 -11 -8 0
-13 -20 -27 -37 -26 -3 1 -10 -6 -15 -15 -5 -9 -13 -14 -19 -11 -8 6 -13 -8
-10 -28 1 -5 -3 -6 -9 -2 -6 3 -17 0 -25 -7 -33 -30 -45 -38 -54 -38 -5 0 -12
-9 -16 -19 -3 -11 -13 -25 -23 -33 -16 -12 -16 -11 -2 7 8 11 -17 -11 -56 -50
-39 -38 -70 -74 -70 -80 1 -5 -5 -9 -11 -7 -7 1 -13 -2 -13 -8 0 -12 -42 -56
-51 -53 -4 1 -6 -5 -5 -15 0 -9 -5 -16 -12 -14 -8 1 -11 -2 -7 -8 3 -5 1 -10
-6 -10 -7 0 -10 -3 -6 -6 8 -9 -16 -33 -27 -26 -5 3 -6 0 -3 -6 9 -14 -3 -43
-14 -36 -5 3 -9 -2 -9 -10 0 -9 -5 -16 -11 -16 -6 0 -8 -9 -4 -22 4 -13 3 -18
-2 -12 -5 8 -14 4 -27 -14 -12 -15 -14 -22 -5 -17 8 5 7 1 -3 -12 -10 -11 -18
-25 -18 -31 0 -7 -5 -12 -11 -12 -6 0 -8 -7 -5 -16 5 -13 4 -14 -7 -5 -12 9
-14 6 -12 -14 2 -14 -1 -25 -6 -25 -5 0 -8 -3 -7 -7 3 -17 -15 -42 -26 -36 -6
4 -4 -2 4 -12 9 -11 10 -16 3 -11 -12 6 -18 -11 -14 -37 1 -4 -6 -10 -14 -13
-8 -3 -12 -10 -9 -15 3 -6 0 -17 -7 -25 -6 -8 -9 -17 -6 -21 4 -3 -1 -12 -11
-20 -10 -9 -11 -11 -2 -7 13 7 13 5 2 -9 -8 -9 -11 -21 -7 -27 3 -5 -2 -10
-12 -10 -14 0 -15 -2 -4 -9 10 -6 10 -10 1 -16 -6 -4 -9 -13 -6 -20 2 -7 -1
-15 -8 -18 -6 -3 -11 -21 -11 -41 1 -20 -2 -36 -6 -36 -4 0 -8 -8 -8 -17 -2
-46 -6 -63 -13 -63 -5 0 -4 -10 3 -21 6 -12 7 -19 1 -15 -5 3 -12 -3 -15 -14
-3 -12 -1 -18 5 -14 6 4 5 -3 -1 -15 -9 -16 -9 -21 1 -21 6 0 3 -7 -8 -15 -14
-11 -15 -14 -4 -15 12 0 13 -2 1 -9 -9 -6 -10 -10 -2 -16 9 -5 9 -10 0 -21 -9
-11 -9 -14 0 -14 8 0 9 -5 2 -19 -6 -10 -8 -28 -6 -40 2 -11 1 -21 -3 -21 -4
0 -8 -9 -8 -20 0 -11 4 -20 9 -20 5 0 4 -7 -3 -15 -7 -8 -9 -15 -4 -15 10 0
11 -57 1 -66 -3 -4 -2 -15 4 -25 5 -11 7 -19 3 -19 -3 0 0 -8 7 -17 11 -13 11
-15 1 -9 -16 10 -13 -25 3 -37 6 -4 6 -10 -2 -15 -10 -6 -10 -12 1 -27 9 -13
11 -25 5 -37 -6 -11 -5 -18 4 -21 9 -3 9 -7 -1 -19 -10 -13 -10 -18 -1 -24 8
-5 9 -3 4 6 -5 8 -4 11 2 7 6 -4 9 -20 8 -37 -1 -16 0 -30 4 -30 3 0 7 -14 7
-31 1 -17 7 -35 14 -39 9 -5 9 -9 1 -14 -6 -4 -9 -12 -5 -17 3 -5 9 -7 13 -5
4 3 7 -8 6 -24 -1 -17 1 -30 5 -30 4 0 7 -6 7 -12 1 -24 8 -42 21 -57 11 -11
11 -15 0 -22 -10 -7 -9 -9 4 -9 12 0 16 -6 13 -20 -2 -13 2 -23 11 -27 13 -5
13 -7 2 -14 -10 -7 -10 -9 0 -9 6 0 12 -7 12 -15 0 -8 5 -15 11 -15 5 0 7 -4
4 -10 -3 -5 -1 -10 6 -10 7 0 10 -3 6 -6 -3 -3 3 -21 14 -40 10 -19 19 -44 19
-55 0 -11 4 -18 8 -15 5 3 15 -7 23 -22 8 -15 21 -33 29 -40 12 -11 12 -12 1
-6 -9 5 -6 -4 7 -23 12 -17 18 -33 14 -37 -4 -4 -2 -6 3 -4 6 2 11 -1 12 -5 1
-5 13 -19 28 -33 14 -13 23 -24 19 -24 -4 0 3 -9 16 -20 13 -11 19 -20 14 -20
-5 0 -1 -5 9 -11 9 -5 17 -15 17 -22 0 -7 11 -21 25 -31 13 -10 22 -24 18 -30
-3 -6 -3 -8 2 -4 8 7 65 -49 65 -65 0 -4 12 -12 26 -17 14 -6 22 -14 19 -20
-3 -5 -1 -10 6 -10 6 0 22 -12 35 -27 13 -16 24 -24 24 -18 0 5 7 -1 16 -13 8
-12 22 -22 30 -22 8 0 12 -5 9 -10 -3 -6 -1 -10 5 -10 6 0 18 -6 25 -13 34
-30 43 -35 49 -30 3 4 6 -1 6 -11 0 -9 5 -14 10 -11 5 3 10 1 10 -5 0 -6 4 -9
9 -5 5 3 21 -6 34 -19 14 -14 28 -22 31 -19 3 4 6 1 6 -6 0 -7 4 -9 10 -6 5 3
10 1 10 -4 0 -6 9 -11 21 -11 11 0 18 -4 15 -9 -3 -5 1 -12 10 -15 9 -4 13 -2
8 5 -4 7 7 2 24 -11 18 -13 35 -19 43 -15 8 5 10 4 5 -3 -5 -8 0 -12 12 -12
11 0 25 -7 32 -15 7 -8 16 -12 21 -9 5 3 9 0 9 -7 0 -6 8 -9 19 -6 12 3 22 -1
26 -11 5 -13 8 -14 14 -3 6 10 10 9 15 -4 3 -9 10 -13 16 -10 5 3 10 1 10 -4
0 -6 5 -11 11 -11 5 0 7 5 3 12 -4 7 8 1 26 -12 18 -13 30 -18 26 -11 -5 7 4
5 20 -5 21 -14 26 -15 19 -4 -7 12 -6 13 7 3 8 -7 18 -10 21 -6 4 3 7 1 7 -6
0 -8 8 -11 20 -8 11 3 20 1 20 -5 0 -5 4 -7 9 -4 5 4 12 0 14 -6 4 -10 6 -9 6
1 1 11 4 11 18 0 15 -12 16 -12 8 1 -8 13 -7 13 10 0 10 -8 26 -14 37 -12 10
2 18 -3 18 -10 0 -9 3 -9 10 2 8 12 10 12 10 1 0 -11 3 -11 15 -1 10 8 15 9
15 2 0 -7 7 -9 17 -5 10 4 14 2 10 -4 -3 -5 0 -10 8 -10 8 0 11 5 8 11 -4 7
-1 7 8 -1 16 -13 381 -15 373 -1 -3 4 7 3 21 -2 19 -7 24 -7 19 2 -5 7 -2 9 8
5 9 -3 21 0 28 6 7 7 10 7 7 2 -3 -6 3 -11 13 -11 15 0 16 3 8 13 -9 11 -6 12
16 4 14 -6 26 -7 26 -2 0 4 14 7 30 6 17 -1 30 2 30 7 0 5 11 6 25 4 14 -3 23
-1 20 4 -8 13 18 18 39 8 12 -7 16 -7 12 0 -6 11 27 24 62 24 13 1 22 7 22 17
0 9 3 12 8 6 9 -13 35 -18 27 -5 -5 9 15 15 38 11 4 0 7 3 7 8 0 5 11 8 25 7
13 -2 22 0 20 4 -3 4 3 14 12 21 12 10 14 10 9 2 -4 -7 -2 -13 3 -13 6 0 11 4
11 10 0 5 12 13 27 16 39 10 74 30 66 38 -4 4 0 4 10 0 10 -3 17 -1 17 6 0 6
5 8 10 5 6 -3 10 -1 10 4 0 6 7 11 15 11 8 0 15 5 15 10 0 6 7 10 15 10 8 0
15 5 15 11 0 6 6 9 14 6 8 -3 17 1 20 9 3 8 15 14 26 14 12 0 18 4 15 10 -3 5
-1 10 4 10 6 0 20 9 31 20 11 11 20 18 20 15 0 -6 7 -1 52 39 15 14 37 27 48
31 11 4 18 11 14 16 -3 6 3 13 15 16 11 3 19 8 17 12 -4 6 19 32 29 31 10 0
43 38 37 44 -3 3 0 6 6 6 16 0 52 37 44 44 -3 3 0 6 6 6 7 0 12 7 12 16 0 8 5
12 10 9 6 -3 10 -1 10 5 0 6 4 9 9 5 5 -3 13 5 17 17 4 13 16 31 27 41 11 9
17 17 14 17 -4 0 0 8 9 18 39 44 64 78 64 90 0 6 5 12 11 12 5 0 7 5 4 10 -3
6 2 10 12 11 10 0 13 3 6 5 -8 4 -7 11 5 25 9 11 17 25 17 32 1 7 7 11 14 9 9
-2 11 3 7 13 -3 9 1 18 9 21 8 4 13 10 10 14 -3 5 -1 11 5 15 6 4 8 11 5 16
-4 5 -1 9 5 9 7 0 10 6 8 12 -3 7 5 21 16 31 12 10 14 15 6 11 -11 -5 -10 -2
3 13 10 11 17 24 16 29 -2 15 13 54 21 54 4 0 7 10 6 22 -1 13 2 26 7 29 4 3
10 19 13 35 3 16 13 37 22 47 15 17 15 17 -4 11 -17 -7 -17 -6 -6 9 8 9 10 22
6 28 -4 7 -3 9 3 6 6 -4 13 0 17 8 3 8 1 15 -5 15 -6 0 -7 5 -4 10 4 6 10 8
14 5 5 -2 7 9 5 25 -2 16 1 32 7 35 6 5 5 12 -3 23 -11 13 -10 15 5 9 15 -6
16 -4 7 13 -8 15 -8 20 2 20 9 0 9 3 -2 10 -11 7 -11 10 -2 10 7 0 10 4 7 10
-3 5 -1 19 6 31 9 17 8 20 -3 13 -10 -6 -11 -5 -1 7 10 12 10 18 0 29 -9 10
-9 11 1 6 16 -10 16 36 0 53 -11 10 -10 11 4 6 14 -6 15 -2 8 29 -4 20 -5 36
-1 36 9 0 8 31 -1 46 -4 5 -3 16 2 24 5 9 5 19 -2 27 -7 9 -7 13 0 13 6 0 9 6
7 13 -2 6 -7 29 -10 50 -4 29 -2 36 7 31 9 -6 9 -3 0 9 -8 9 -11 21 -7 27 3 5
1 10 -6 10 -9 0 -9 3 0 14 8 10 9 16 2 21 -6 3 -9 24 -8 45 2 21 -1 38 -6 37
-5 -1 -12 4 -14 11 -3 6 0 12 7 12 6 0 8 5 3 13 -9 14 -14 34 -16 60 -1 9 -5
17 -10 17 -5 0 -7 7 -4 15 4 8 2 17 -4 20 -5 4 -6 11 -3 17 4 6 0 14 -7 19
-12 7 -11 9 1 9 13 0 13 2 1 9 -8 5 -15 22 -16 38 -1 15 -6 27 -12 26 -6 -1
-10 8 -9 20 1 12 -2 25 -7 28 -4 3 -9 16 -10 27 -1 12 -5 22 -10 22 -4 0 -6 4
-2 9 3 6 -3 14 -12 20 -14 8 -15 10 -3 11 9 0 11 3 5 8 -14 10 -76 134 -63
126 7 -4 8 -2 4 4 -4 7 -15 12 -24 13 -9 0 -12 3 -5 5 8 4 5 12 -8 25 -11 11
-17 24 -14 29 4 6 -1 10 -9 10 -9 0 -16 7 -16 15 0 8 0 17 0 20 0 2 -12 17
-25 31 -14 15 -25 31 -25 36 0 5 -4 6 -10 3 -6 -3 -7 1 -4 9 4 11 0 16 -11 16
-9 0 -14 4 -11 9 3 5 -1 14 -9 21 -8 7 -12 17 -8 23 3 5 2 7 -4 4 -5 -3 -16 4
-24 15 -8 12 -27 34 -44 51 -16 16 -29 33 -28 38 2 5 -1 9 -6 9 -13 0 -76 62
-74 72 2 4 -4 8 -12 8 -8 0 -15 5 -15 10 0 6 -7 10 -16 10 -8 0 -13 4 -10 8 3
5 -6 15 -19 22 -13 7 -22 17 -19 21 3 5 -2 6 -10 3 -11 -4 -16 0 -16 10 0 9
-5 16 -11 16 -7 0 -18 8 -26 18 -8 9 -12 11 -8 5 4 -9 1 -11 -9 -7 -9 3 -13
10 -10 15 3 5 -2 9 -11 9 -8 0 -18 7 -21 15 -4 8 -10 13 -14 10 -4 -3 -11 2
-14 11 -3 8 -10 13 -15 9 -5 -3 -12 -1 -16 5 -4 6 -11 8 -16 4 -5 -3 -8 0 -7
8 2 7 -3 12 -9 11 -7 -2 -13 2 -13 8 0 5 -4 7 -10 4 -6 -3 -10 -1 -10 4 0 6
-7 11 -15 11 -8 0 -15 5 -15 10 0 6 5 10 11 10 5 0 7 5 4 10 -3 6 -1 10 6 10
7 0 10 3 7 6 -4 3 2 15 13 27 47 53 48 56 36 61 -7 2 -4 5 6 5 9 1 17 6 17 12
0 6 7 17 15 26 8 8 13 19 10 24 -4 5 1 9 10 9 9 0 13 5 10 10 -3 6 -1 10 5 10
6 0 16 14 22 31 6 16 13 27 16 24 3 -3 12 9 19 26 7 17 17 28 23 24 5 -3 7 0
4 8 -3 8 2 20 10 27 9 7 13 16 10 21 -3 5 2 9 10 9 8 0 18 5 22 12 5 7 2 8 -7
3 -8 -5 -4 3 9 17 12 13 19 28 15 31 -3 4 -1 7 6 7 7 0 9 5 5 13 -4 6 -4 9 1
5 11 -10 35 10 35 29 0 8 6 21 13 28 29 34 37 45 31 45 -4 0 3 8 14 19 12 10
22 24 22 31 0 6 12 24 26 40 15 15 26 31 25 35 -1 3 6 14 16 23 10 9 19 24 21
32 2 8 10 21 19 28 9 6 13 12 7 12 -5 0 -1 5 9 11 9 5 17 16 17 23 0 8 7 17
16 20 9 4 14 9 11 12 -3 4 3 15 14 27 10 11 24 33 31 48 7 15 16 25 20 23 4
-3 8 0 8 6 0 12 53 92 78 118 7 8 9 19 5 25 -4 6 0 8 9 4 10 -3 15 0 14 11 0
9 4 16 10 15 7 -1 11 5 10 15 0 9 5 16 12 14 8 -1 11 2 7 8 -4 6 5 25 19 43
15 17 30 37 34 42 5 6 9 15 11 20 2 6 7 9 12 8 5 -2 8 1 6 5 -3 11 55 102 63
97 3 -2 7 6 7 17 1 11 10 26 20 33 10 7 18 17 18 22 0 5 10 19 23 33 12 13 22
29 22 36 0 6 7 14 15 18 8 3 15 14 15 23 0 10 8 26 18 35 28 27 43 48 35 48
-4 0 -1 5 7 10 10 6 -243 10 -723 10 -693 0 -738 -1 -744 -17 -4 -10 -12 -23
-17 -30 -32 -37 -36 -44 -31 -53 3 -6 -1 -10 -9 -10 -9 0 -16 -7 -16 -15 0 -8
-5 -15 -11 -15 -5 0 -7 -4 -4 -10 3 -5 -1 -10 -10 -10 -9 0 -14 -4 -10 -9 3
-5 -1 -16 -9 -24 -8 -8 -12 -17 -9 -21 4 -3 -1 -6 -11 -6 -9 0 -15 -4 -12 -9
3 -5 -3 -20 -14 -34 -11 -14 -20 -30 -20 -37 0 -6 -4 -8 -10 -5 -5 3 -10 -1
-10 -9 0 -9 -5 -16 -11 -16 -6 0 -8 -7 -5 -16 3 -8 2 -12 -4 -9 -6 3 -13 -2
-17 -12 -4 -10 -13 -24 -20 -31 -7 -8 -10 -18 -7 -24 4 -6 2 -8 -3 -5 -6 4
-14 1 -17 -6 -3 -6 -15 -25 -26 -42 -11 -16 -23 -38 -26 -47 -4 -10 -13 -18
-20 -18 -8 0 -13 -3 -12 -7 3 -17 -21 -61 -38 -67 -9 -4 -14 -9 -11 -12 3 -4
1 -12 -6 -20 -29 -32 -37 -44 -32 -44 3 0 0 -6 -7 -14 -7 -8 -16 -12 -20 -9
-4 2 -6 -2 -3 -9 4 -11 -6 -27 -55 -85 -6 -7 -8 -13 -5 -13 4 0 -1 -7 -9 -16
-9 -8 -16 -22 -16 -30 0 -9 -5 -12 -12 -8 -7 5 -9 2 -6 -8 4 -10 0 -14 -15
-13 -12 2 -21 8 -19 14 1 6 -2 11 -8 11 -5 0 -10 7 -10 15 0 8 -4 15 -10 15
-5 0 -10 7 -10 16 0 9 -5 12 -12 8 -8 -5 -9 -2 -5 9 4 11 1 17 -7 17 -16 0
-29 27 -19 42 3 6 1 8 -5 4 -6 -3 -13 3 -17 14 -3 11 -11 20 -16 20 -6 0 -7 5
-4 10 3 6 -1 10 -10 10 -9 0 -13 5 -10 10 3 6 0 13 -9 16 -9 3 -12 12 -9 21 4
10 2 14 -4 10 -6 -4 -13 3 -16 14 -4 13 -10 18 -18 14 -7 -5 -10 -3 -7 6 3 8
-1 20 -9 27 -7 8 -11 17 -8 22 3 5 -4 11 -15 15 -18 6 -25 23 -21 49 1 5 -5 6
-13 3 -11 -4 -13 -1 -9 10 4 11 2 14 -5 9 -7 -4 -12 -1 -12 8 0 9 -8 25 -17
37 -10 11 -26 30 -35 41 -10 11 -15 24 -13 28 3 4 -2 11 -11 14 -10 4 -14 12
-10 23 4 10 4 14 0 11 -8 -9 -35 17 -38 37 -1 7 -14 26 -29 41 -15 15 -27 33
-27 40 0 8 -5 14 -11 14 -5 0 -7 5 -4 10 3 6 3 10 -2 10 -4 0 -21 17 -38 38
-19 24 -22 32 -10 23 11 -7 7 -1 -9 13 -15 15 -26 30 -22 33 3 3 -4 14 -16 24
-20 18 -55 19 -749 19 -642 0 -728 -2 -723 -15z"/>
</g>
</svg>
